<svg width="16" height="30" viewBox="0 0 16 30" fill="none" xmlns="http://www.w3.org/2000/svg">
<path d="M15.4672 5.83764C14.2972 5.83764 13.2378 5.83168 12.1799 5.83913C10.703 5.84957 10.2388 6.30744 10.2341 7.73323C10.2325 8.57289 10.2341 9.41106 10.2341 10.3402C12.0023 10.3402 13.7036 10.3402 15.4874 10.3402C15.2834 11.9062 15.1104 13.3782 14.8736 14.8398C14.8487 14.9979 14.4499 15.2037 14.2193 15.2112C12.9278 15.247 11.6331 15.2291 10.2543 15.2291C10.2543 20.0627 10.2543 24.8427 10.2543 29.739C9.52833 29.739 8.88802 29.739 8.24615 29.739C6.92346 29.7405 5.59766 29.7122 4.27653 29.7584C3.57546 29.7822 3.33865 29.5884 3.34332 28.8844C3.3776 24.6369 3.36202 20.3893 3.36358 16.1403C3.36358 15.8733 3.36358 15.6064 3.36358 15.2663C2.25121 15.2663 1.22297 15.2663 0.130859 15.2663C0.130859 13.6228 0.130859 12.0509 0.130859 10.3864C1.16845 10.3864 2.21694 10.3864 3.36046 10.3864C3.36046 9.28727 3.35267 8.27759 3.36358 7.2694C3.37137 6.59976 3.33398 5.91967 3.43992 5.26196C3.84187 2.76534 5.92638 1.00547 8.66056 0.880191C10.7077 0.787723 12.7595 0.766847 14.8082 0.753424C15.0263 0.751933 15.4314 1.00696 15.436 1.15163C15.4843 2.6848 15.4672 4.21946 15.4672 5.83764Z" fill="#231F20"/>
</svg>
