<svg width="32" height="30" viewBox="0 0 32 30" fill="none" xmlns="http://www.w3.org/2000/svg">
<path d="M15.6253 29.9893C13.4778 29.9893 11.3288 30.0167 9.18132 29.9841C3.88112 29.9045 0.330559 26.8992 0.121213 21.9385C-0.0728828 17.3418 -0.0202036 12.7242 0.182211 8.12622C0.362442 4.03953 3.84785 0.931145 8.2053 0.835924C13.1215 0.727658 18.0446 0.723746 22.9607 0.837229C27.375 0.938973 30.9422 4.31476 31.0462 8.47711C31.1613 13.0803 31.1571 17.6914 31.0462 22.2946C30.9478 26.4009 27.5913 29.641 23.2394 29.8836C20.7092 30.0245 18.1624 29.9097 15.6239 29.9097C15.6253 29.9358 15.6253 29.9619 15.6253 29.9893ZM28.3497 15.3578C28.34 15.3578 28.3289 15.3578 28.3192 15.3578C28.3192 13.1416 28.3968 10.9216 28.2997 8.70929C28.1708 5.78221 26.0413 3.79039 22.9427 3.52951C22.8512 3.52169 22.7583 3.50603 22.6668 3.50603C17.9794 3.50603 13.2864 3.39907 8.60458 3.54256C5.01103 3.65213 2.96333 5.8383 2.9453 9.2154C2.92174 13.3008 2.91342 17.3862 2.96055 21.4716C2.97026 22.3025 3.1394 23.1686 3.43609 23.9512C4.24436 26.0826 6.32811 27.2657 9.16468 27.2761C13.4376 27.2918 17.7104 27.2957 21.9833 27.2761C25.929 27.2579 28.3233 24.9934 28.3469 21.2902C28.3607 19.3128 28.3497 17.3353 28.3497 15.3578Z" fill="#231F20"/>
<path d="M7.58213 15.2945C7.60432 11.1256 11.2284 7.73672 15.6274 7.77324C20.032 7.80846 23.6158 11.2339 23.5922 15.3832C23.5687 19.53 19.9349 22.8849 15.4998 22.8549C11.1036 22.8262 7.55995 19.4426 7.58213 15.2945ZM20.7072 15.3167C20.7085 12.6713 18.4265 10.4995 15.6246 10.4799C12.813 10.4603 10.4492 12.6687 10.4478 15.3128C10.4464 17.9438 12.752 20.1209 15.5511 20.1326C18.4071 20.1457 20.7058 17.9986 20.7072 15.3167Z" fill="#231F20"/>
<path d="M25.7172 7.62731C25.702 8.5701 24.9048 9.30426 23.8997 9.29774C22.9084 9.29122 22.0946 8.52838 22.0918 7.60253C22.089 6.65452 22.9417 5.87603 23.9607 5.89689C24.9561 5.91906 25.7325 6.68321 25.7172 7.62731Z" fill="#231F20"/>
</svg>
