<svg width="202" height="36" viewBox="0 0 202 36" fill="none" xmlns="http://www.w3.org/2000/svg">
<path d="M0 27V1.8H4.392V22.608H14.886V27H0Z" fill="#353535"/>
<path d="M30.9392 9H35.3312V27H30.9392L30.7412 24.768C30.2492 25.572 29.5952 26.226 28.7792 26.73C27.9752 27.222 27.0212 27.468 25.9172 27.468C24.5852 27.468 23.3372 27.216 22.1732 26.712C21.0092 26.208 19.9832 25.512 19.0952 24.624C18.2192 23.736 17.5292 22.71 17.0252 21.546C16.5332 20.382 16.2872 19.134 16.2872 17.802C16.2872 16.518 16.5212 15.312 16.9892 14.184C17.4692 13.056 18.1352 12.066 18.9872 11.214C19.8392 10.362 20.8232 9.696 21.9392 9.216C23.0552 8.736 24.2552 8.496 25.5392 8.496C26.7272 8.496 27.7892 8.76 28.7252 9.288C29.6732 9.816 30.4772 10.488 31.1372 11.304L30.9392 9ZM25.8092 23.238C26.7452 23.238 27.5732 23.004 28.2932 22.536C29.0132 22.068 29.5772 21.438 29.9852 20.646C30.3932 19.842 30.5972 18.96 30.5972 18C30.5972 17.028 30.3932 16.146 29.9852 15.354C29.5772 14.55 29.0072 13.914 28.2752 13.446C27.5552 12.978 26.7332 12.744 25.8092 12.744C24.8852 12.744 24.0392 12.984 23.2712 13.464C22.5152 13.932 21.9092 14.562 21.4532 15.354C21.0092 16.146 20.7872 17.028 20.7872 18C20.7872 18.972 21.0152 19.854 21.4712 20.646C21.9272 21.438 22.5332 22.068 23.2892 22.536C24.0572 23.004 24.8972 23.238 25.8092 23.238Z" fill="#353535"/>
<path d="M38.918 27V9H43.31V10.602C43.922 9.954 44.654 9.444 45.506 9.072C46.358 8.688 47.276 8.496 48.26 8.496C49.508 8.496 50.654 8.79 51.698 9.378C52.754 9.966 53.594 10.752 54.218 11.736C54.854 10.752 55.694 9.966 56.738 9.378C57.782 8.79 58.928 8.496 60.176 8.496C61.496 8.496 62.69 8.82 63.758 9.468C64.838 10.104 65.696 10.962 66.332 12.042C66.98 13.11 67.304 14.304 67.304 15.624V27H62.912V16.794C62.912 16.098 62.738 15.462 62.39 14.886C62.054 14.298 61.598 13.83 61.022 13.482C60.458 13.122 59.822 12.942 59.114 12.942C58.406 12.942 57.764 13.116 57.188 13.464C56.624 13.8 56.168 14.256 55.82 14.832C55.472 15.408 55.298 16.062 55.298 16.794V27H50.906V16.794C50.906 16.062 50.738 15.408 50.402 14.832C50.066 14.256 49.61 13.8 49.034 13.464C48.458 13.116 47.816 12.942 47.108 12.942C46.412 12.942 45.776 13.122 45.2 13.482C44.624 13.83 44.162 14.298 43.814 14.886C43.478 15.462 43.31 16.098 43.31 16.794V27H38.918Z" fill="#353535"/>
<path d="M84.1306 9H88.5226V27H84.1306L83.9326 24.768C83.4406 25.572 82.7866 26.226 81.9706 26.73C81.1666 27.222 80.2126 27.468 79.1086 27.468C77.7766 27.468 76.5286 27.216 75.3646 26.712C74.2006 26.208 73.1746 25.512 72.2866 24.624C71.4106 23.736 70.7206 22.71 70.2166 21.546C69.7246 20.382 69.4786 19.134 69.4786 17.802C69.4786 16.518 69.7126 15.312 70.1806 14.184C70.6606 13.056 71.3266 12.066 72.1786 11.214C73.0306 10.362 74.0146 9.696 75.1306 9.216C76.2466 8.736 77.4466 8.496 78.7306 8.496C79.9186 8.496 80.9806 8.76 81.9166 9.288C82.8646 9.816 83.6686 10.488 84.3286 11.304L84.1306 9ZM79.0006 23.238C79.9366 23.238 80.7646 23.004 81.4846 22.536C82.2046 22.068 82.7686 21.438 83.1766 20.646C83.5846 19.842 83.7886 18.96 83.7886 18C83.7886 17.028 83.5846 16.146 83.1766 15.354C82.7686 14.55 82.1986 13.914 81.4666 13.446C80.7466 12.978 79.9246 12.744 79.0006 12.744C78.0766 12.744 77.2306 12.984 76.4626 13.464C75.7066 13.932 75.1006 14.562 74.6446 15.354C74.2006 16.146 73.9786 17.028 73.9786 18C73.9786 18.972 74.2066 19.854 74.6626 20.646C75.1186 21.438 75.7246 22.068 76.4806 22.536C77.2486 23.004 78.0886 23.238 79.0006 23.238Z" fill="#353535"/>
<path d="M92.1274 27L92.1094 9H96.5014L96.5194 10.602C97.1314 9.954 97.8634 9.444 98.7154 9.072C99.5674 8.688 100.485 8.496 101.469 8.496C102.129 8.496 102.789 8.592 103.449 8.784L101.721 13.212C101.265 13.032 100.809 12.942 100.353 12.942C99.6454 12.942 98.9974 13.116 98.4094 13.464C97.8334 13.8 97.3714 14.262 97.0234 14.85C96.6874 15.426 96.5194 16.068 96.5194 16.776V27H92.1274Z" fill="#353535"/>
<path d="M121.543 27H116.485L112.381 19.926L109.861 22.932V27H105.469V0H109.861V16.11L115.819 9H121.561L115.387 16.362L121.543 27Z" fill="#353535"/>
<path d="M131.143 27.468C129.487 27.468 127.975 27.042 126.607 26.19C125.251 25.338 124.165 24.192 123.349 22.752C122.545 21.312 122.143 19.722 122.143 17.982C122.143 16.674 122.377 15.45 122.845 14.31C123.313 13.158 123.955 12.15 124.771 11.286C125.599 10.41 126.559 9.726 127.651 9.234C128.743 8.742 129.907 8.496 131.143 8.496C132.547 8.496 133.831 8.796 134.995 9.396C136.171 9.984 137.167 10.794 137.983 11.826C138.799 12.858 139.393 14.034 139.765 15.354C140.137 16.674 140.221 18.054 140.017 19.494H126.859C127.027 20.166 127.303 20.772 127.687 21.312C128.071 21.84 128.557 22.266 129.145 22.59C129.733 22.902 130.399 23.064 131.143 23.076C131.911 23.088 132.607 22.908 133.231 22.536C133.867 22.152 134.395 21.636 134.815 20.988L139.297 22.032C138.565 23.628 137.473 24.936 136.021 25.956C134.569 26.964 132.943 27.468 131.143 27.468ZM126.715 16.2H135.571C135.439 15.48 135.157 14.832 134.725 14.256C134.305 13.668 133.783 13.2 133.159 12.852C132.535 12.504 131.863 12.33 131.143 12.33C130.423 12.33 129.757 12.504 129.145 12.852C128.533 13.188 128.011 13.65 127.579 14.238C127.159 14.814 126.871 15.468 126.715 16.2Z" fill="#353535"/>
<path d="M152.593 13.392H149.101V27H144.709V13.392H142.045V9H144.709V3.348H149.101V9H152.593V13.392Z" fill="#353535"/>
<path d="M155.566 9H159.958V27H155.566V9ZM157.798 6.678C157.15 6.678 156.604 6.468 156.16 6.048C155.716 5.616 155.494 5.076 155.494 4.428C155.494 3.792 155.716 3.258 156.16 2.826C156.604 2.394 157.144 2.178 157.78 2.178C158.416 2.178 158.95 2.394 159.382 2.826C159.826 3.258 160.048 3.792 160.048 4.428C160.048 5.076 159.832 5.616 159.4 6.048C158.968 6.468 158.434 6.678 157.798 6.678Z" fill="#353535"/>
<path d="M180.633 15.624V27H176.241V16.776C176.241 16.068 176.067 15.426 175.719 14.85C175.371 14.262 174.903 13.8 174.315 13.464C173.739 13.116 173.097 12.942 172.389 12.942C171.681 12.942 171.033 13.116 170.445 13.464C169.869 13.8 169.407 14.262 169.059 14.85C168.723 15.426 168.555 16.068 168.555 16.776V27H164.163L164.145 9H168.537L168.555 10.602C169.167 9.954 169.899 9.444 170.751 9.072C171.603 8.688 172.521 8.496 173.505 8.496C174.813 8.496 176.007 8.82 177.087 9.468C178.167 10.104 179.025 10.962 179.661 12.042C180.309 13.11 180.633 14.304 180.633 15.624Z" fill="#353535"/>
<path d="M197.223 9H201.615V27.342C201.615 28.638 201.351 29.814 200.823 30.87C200.295 31.938 199.575 32.85 198.663 33.606C197.751 34.374 196.707 34.962 195.531 35.37C194.355 35.79 193.119 36 191.823 36C190.563 36 189.351 35.742 188.187 35.226C187.023 34.71 185.991 34.002 185.091 33.102C184.203 32.214 183.525 31.2 183.057 30.06L187.071 28.242C187.311 28.902 187.671 29.478 188.151 29.97C188.643 30.474 189.207 30.864 189.843 31.14C190.479 31.428 191.139 31.572 191.823 31.572C192.519 31.572 193.185 31.476 193.821 31.284C194.469 31.092 195.051 30.81 195.567 30.438C196.083 30.078 196.485 29.634 196.773 29.106C197.073 28.59 197.223 28.002 197.223 27.342V24.804C196.659 25.596 195.951 26.238 195.099 26.73C194.247 27.222 193.263 27.468 192.147 27.468C190.851 27.468 189.639 27.222 188.511 26.73C187.383 26.238 186.387 25.56 185.523 24.696C184.671 23.82 183.999 22.812 183.507 21.672C183.027 20.532 182.787 19.308 182.787 18C182.787 16.692 183.027 15.468 183.507 14.328C183.999 13.188 184.671 12.186 185.523 11.322C186.387 10.446 187.383 9.762 188.511 9.27C189.639 8.778 190.851 8.532 192.147 8.532C193.263 8.532 194.247 8.778 195.099 9.27C195.951 9.75 196.659 10.386 197.223 11.178V9ZM192.201 23.238C193.125 23.238 193.941 23.004 194.649 22.536C195.369 22.056 195.933 21.42 196.341 20.628C196.749 19.824 196.953 18.948 196.953 18C196.953 17.04 196.743 16.164 196.323 15.372C195.915 14.58 195.351 13.944 194.631 13.464C193.923 12.984 193.113 12.744 192.201 12.744C191.301 12.744 190.479 12.984 189.735 13.464C188.991 13.932 188.397 14.562 187.953 15.354C187.509 16.146 187.287 17.028 187.287 18C187.287 18.972 187.509 19.854 187.953 20.646C188.397 21.438 188.991 22.068 189.735 22.536C190.479 23.004 191.301 23.238 192.201 23.238Z" fill="#353535"/>
</svg>
