<svg width="55" height="55" viewBox="0 0 55 55" fill="none" xmlns="http://www.w3.org/2000/svg">
<circle cx="27.5" cy="27.5" r="27.5" transform="matrix(-1 0 0 1 55 0)" fill="#6B7EEC"/>
<mask id="mask0_2035_1902" style="mask-type:alpha" maskUnits="userSpaceOnUse" x="9" y="10" width="36" height="36">
<rect width="36" height="36" transform="matrix(-1 0 0 1 45 10)" fill="#D9D9D9"/>
</mask>
<g mask="url(#mask0_2035_1902)">
<path d="M39 40C39.825 40 40.5312 39.7063 41.1187 39.1188C41.7062 38.5312 42 37.825 42 37V19C42 18.175 41.7062 17.4688 41.1187 16.8813C40.5312 16.2938 39.825 16 39 16H15C14.175 16 13.4688 16.2938 12.8812 16.8813C12.2937 17.4688 12 18.175 12 19V37C12 37.825 12.2937 38.5312 12.8812 39.1188C13.4688 39.7063 14.175 40 15 40H39ZM27 29.5L39 22V37H15V22L27 29.5ZM27 26.5L15 19H39L27 26.5ZM39 22V19V37V22Z" fill="white"/>
</g>
</svg>
