<svg width="55" height="55" viewBox="0 0 55 55" fill="none" xmlns="http://www.w3.org/2000/svg">
<circle cx="27.5" cy="27.5" r="27.5" fill="#6B7EEC"/>
<mask id="mask0_2035_1896" style="mask-type:alpha" maskUnits="userSpaceOnUse" x="10" y="10" width="36" height="36">
<rect x="10" y="10" width="36" height="36" fill="#D9D9D9"/>
</mask>
<g mask="url(#mask0_2035_1896)">
<path d="M39.925 41.5C36.8 41.5 33.7125 40.8188 30.6625 39.4563C27.6125 38.0938 24.8375 36.1625 22.3375 33.6625C19.8375 31.1625 17.9062 28.3875 16.5438 25.3375C15.1813 22.2875 14.5 19.2 14.5 16.075C14.5 15.625 14.65 15.25 14.95 14.95C15.25 14.65 15.625 14.5 16.075 14.5H22.15C22.5 14.5 22.8125 14.6187 23.0875 14.8562C23.3625 15.0938 23.525 15.375 23.575 15.7L24.55 20.95C24.6 21.35 24.5875 21.6875 24.5125 21.9625C24.4375 22.2375 24.3 22.475 24.1 22.675L20.4625 26.35C20.9625 27.275 21.5562 28.1687 22.2437 29.0312C22.9312 29.8938 23.6875 30.725 24.5125 31.525C25.2875 32.3 26.1 33.0188 26.95 33.6813C27.8 34.3438 28.7 34.95 29.65 35.5L33.175 31.975C33.4 31.75 33.6938 31.5812 34.0563 31.4688C34.4188 31.3563 34.775 31.325 35.125 31.375L40.3 32.425C40.65 32.525 40.9375 32.7062 41.1625 32.9688C41.3875 33.2313 41.5 33.525 41.5 33.85V39.925C41.5 40.375 41.35 40.75 41.05 41.05C40.75 41.35 40.375 41.5 39.925 41.5ZM19.0375 23.5L21.5125 21.025L20.875 17.5H17.5375C17.6625 18.525 17.8375 19.5375 18.0625 20.5375C18.2875 21.5375 18.6125 22.525 19.0375 23.5ZM32.4625 36.925C33.4375 37.35 34.4313 37.6875 35.4438 37.9375C36.4563 38.1875 37.475 38.35 38.5 38.425V35.125L34.975 34.4125L32.4625 36.925Z" fill="white"/>
</g>
</svg>
